<svg viewBox="0 0 324 210"
     fill="none"
     xmlns="http://www.w3.org/2000/svg">
<path fill="white" d="M160.549 178.218L166.473 184.752C147.713 201.584 125.694 210 100.417 210C72.3752 210 48.5793 199.802 29.0291 179.406C9.67636 159.01 0 134.257 0 105.149C0 76.0396 9.67636 51.2871 29.0291 30.8911C48.5793 10.297 72.3752 0 100.417 0C125.694 0 147.811 8.51486 166.769 25.5446L160.845 32.0792C143.467 16.6337 123.324 8.91088 100.417 8.91088C74.9424 8.91088 53.3187 18.3168 35.5458 37.1287C17.7729 55.7426 8.88646 78.4158 8.88646 105.149C8.88646 131.683 17.7729 154.356 35.5458 173.168C53.3187 191.782 74.9424 201.089 100.417 201.089C123.324 201.089 143.368 193.465 160.549 178.218Z"/>
<path fill="white" d="M138.727 74.3564H131.816L112.759 132.277L98.6397 83.3663H93.7027L79.5831 132.277L60.5266 74.3564H53.6149L76.621 142.574H82.8415L96.1712 96.8317L109.501 142.574H115.721L138.727 74.3564Z"/>
<path fill="white" d="M188.627 142.574V96.3366H182.012V103.96C180.366 101.188 177.931 99.0759 174.705 97.6238C171.546 96.1056 168.189 95.3465 164.634 95.3465C157.92 95.3465 152.292 97.5577 147.75 101.98C143.274 106.337 141.035 112.112 141.035 119.307C141.035 126.502 143.274 132.343 147.75 136.832C152.292 141.32 157.92 143.564 164.634 143.564C168.123 143.564 171.48 142.805 174.705 141.287C177.931 139.703 180.366 137.492 182.012 134.653V142.574H188.627ZM152.489 131.98C149.264 128.614 147.651 124.389 147.651 119.307C147.651 114.092 149.264 109.901 152.489 106.733C155.715 103.564 159.763 101.98 164.634 101.98C169.176 101.98 173.191 103.531 176.68 106.634C180.235 109.736 182.012 113.96 182.012 119.307C182.012 124.785 180.333 129.109 176.976 132.277C173.685 135.38 169.571 136.931 164.634 136.931C159.829 136.931 155.78 135.281 152.489 131.98Z"/>
<path fill="white" d="M211.17 142.574V71.2871H204.653V142.574H211.17Z"/>
<path fill="white" d="M233.637 142.574V71.2871H227.12V142.574H233.637Z"/>
<path fill="white" d="M253.043 136.832C257.519 141.32 263.081 143.564 269.729 143.564C274.403 143.564 278.616 142.409 282.368 140.099C286.12 137.789 288.918 134.587 290.761 130.495C290.168 130.363 289.082 130.132 287.502 129.802C285.988 129.472 284.869 129.208 284.145 129.01C282.697 131.518 280.689 133.498 278.122 134.95C275.621 136.337 272.823 137.03 269.729 137.03C265.385 137.03 261.666 135.71 258.572 133.069C255.544 130.363 253.734 126.799 253.141 122.376H292.242C292.308 121.782 292.34 120.759 292.34 119.307C292.34 112.046 290.234 106.238 286.021 101.881C281.808 97.5247 276.378 95.3465 269.729 95.3465C263.015 95.3465 257.453 97.5577 253.043 101.98C248.632 106.337 246.427 112.112 246.427 119.307C246.427 126.502 248.632 132.343 253.043 136.832ZM285.626 116.238H253.141C253.8 111.881 255.643 108.416 258.671 105.842C261.699 103.201 265.385 101.881 269.729 101.881C273.942 101.881 277.464 103.168 280.294 105.743C283.191 108.317 284.968 111.815 285.626 116.238Z"/>
<path fill="white" d="M307.609 142.574H314.225V102.277H324V96.3366H314.225V79.0099H307.609V96.3366H299.315V102.277H307.609V142.574Z"/>
</svg>
